<svg width="322" height="387" viewBox="0 0 322 387" fill="none" xmlns="http://www.w3.org/2000/svg">
<g filter="url(#filter0_n_476_2796)">
<path d="M302 0C313.046 0 322 8.95431 322 20V367C322 378.046 313.046 387 302 387H20C8.95431 387 4.79198e-07 378.046 0 367L0 20C5.15439e-06 8.95431 8.95431 2.01331e-07 20 0L302 0ZM66.0479 24.1387L64.2461 23.7432L63.4316 25.3984L61.6367 25.8242L61.6211 27.6689L60.1885 28.8311L60.9746 30.5L60.1885 32.1689L61.6211 33.3311L61.6367 35.1758L63.4316 35.6016L64.2461 37.2568L66.0479 36.8613L67.5 38L68.9521 36.8613L70.7539 37.2568L71.5684 35.6016L73.3633 35.1758L73.3789 33.3311L74.8115 32.1689L74.0254 30.5L74.8115 28.8311L73.3789 27.6689L73.3633 25.8242L71.5684 25.3984L70.7539 23.7432L68.9521 24.1387L67.5 23L66.0479 24.1387ZM128.048 24.1387L126.246 23.7432L125.432 25.3984L123.637 25.8242L123.621 27.6689L122.188 28.8311L122.975 30.5L122.188 32.1689L123.621 33.3311L123.637 35.1758L125.432 35.6016L126.246 37.2568L128.048 36.8613L129.5 38L130.952 36.8613L132.754 37.2568L133.568 35.6016L135.363 35.1758L135.379 33.3311L136.812 32.1689L136.025 30.5L136.812 28.8311L135.379 27.6689L135.363 25.8242L133.568 25.3984L132.754 23.7432L130.952 24.1387L129.5 23L128.048 24.1387ZM190.048 24.1387L188.246 23.7432L187.432 25.3984L185.637 25.8242L185.621 27.6689L184.188 28.8311L184.975 30.5L184.188 32.1689L185.621 33.3311L185.637 35.1758L187.432 35.6016L188.246 37.2568L190.048 36.8613L191.5 38L192.952 36.8613L194.754 37.2568L195.568 35.6016L197.363 35.1758L197.379 33.3311L198.812 32.1689L198.025 30.5L198.812 28.8311L197.379 27.6689L197.363 25.8242L195.568 25.3984L194.754 23.7432L192.952 24.1387L191.5 23L190.048 24.1387ZM252.048 24.1387L250.246 23.7432L249.432 25.3984L247.637 25.8242L247.621 27.6689L246.188 28.8311L246.975 30.5L246.188 32.1689L247.621 33.3311L247.637 35.1758L249.432 35.6016L250.246 37.2568L252.048 36.8613L253.5 38L254.952 36.8613L256.754 37.2568L257.568 35.6016L259.363 35.1758L259.379 33.3311L260.812 32.1689L260.025 30.5L260.812 28.8311L259.379 27.6689L259.363 25.8242L257.568 25.3984L256.754 23.7432L254.952 24.1387L253.5 23L252.048 24.1387Z" fill="#5C748B"/>
</g>
<defs>
<filter id="filter0_n_476_2796" x="0" y="0" width="322" height="387" filterUnits="userSpaceOnUse" color-interpolation-filters="sRGB">
<feFlood flood-opacity="0" result="BackgroundImageFix"/>
<feBlend mode="normal" in="SourceGraphic" in2="BackgroundImageFix" result="shape"/>
<feTurbulence type="fractalNoise" baseFrequency="0.66666668653488159 0.66666668653488159" stitchTiles="stitch" numOctaves="3" result="noise" seed="2185" />
<feColorMatrix in="noise" type="luminanceToAlpha" result="alphaNoise" />
<feComponentTransfer in="alphaNoise" result="coloredNoise1">
<feFuncA type="discrete" tableValues="0 0 0 0 0 0 0 0 0 0 0 0 0 0 0 0 1 1 1 1 1 1 1 1 1 1 1 1 1 1 1 1 1 0 0 0 0 0 0 0 0 0 0 0 0 0 0 0 0 0 0 0 0 0 0 0 0 0 0 0 0 0 0 0 0 0 0 0 0 0 0 0 0 0 0 0 0 0 0 0 0 0 0 0 0 0 0 0 0 0 0 0 0 0 0 0 0 0 0 0 "/>
</feComponentTransfer>
<feComposite operator="in" in2="shape" in="coloredNoise1" result="noise1Clipped" />
<feFlood flood-color="rgba(0, 0, 0, 0.06)" result="color1Flood" />
<feComposite operator="in" in2="noise1Clipped" in="color1Flood" result="color1" />
<feMerge result="effect1_noise_476_2796">
<feMergeNode in="shape" />
<feMergeNode in="color1" />
</feMerge>
</filter>
</defs>
</svg>
