<svg width="34" height="34" viewBox="0 0 34 34" fill="none" xmlns="http://www.w3.org/2000/svg">
<path d="M7.39421 7.39421C7.80914 6.97927 8.48188 6.97927 8.89681 7.39421L16.9997 15.4971L25.1025 7.39421C25.5175 6.97927 26.1902 6.97927 26.6051 7.39421C27.0201 7.80914 27.0201 8.48188 26.6051 8.89681L18.5023 16.9997L26.6051 25.1025C27.0201 25.5175 27.0201 26.1902 26.6051 26.6051C26.1902 27.0201 25.5175 27.0201 25.1025 26.6051L16.9997 18.5023L8.89681 26.6051C8.48188 27.0201 7.80914 27.0201 7.39421 26.6051C6.97927 26.1902 6.97927 25.5175 7.39421 25.1025L15.4971 16.9997L7.39421 8.89681C6.97927 8.48188 6.97927 7.80914 7.39421 7.39421Z" fill="white" stroke="white" stroke-width="1.41667" stroke-linecap="round" stroke-linejoin="round"/>
</svg>
