<svg width="25" height="25" viewBox="0 0 25 25" fill="none" xmlns="http://www.w3.org/2000/svg">
<rect x="0.5" y="0.5" width="24" height="24" rx="12" stroke="white" stroke-opacity="0.75"/>
<path fill-rule="evenodd" clip-rule="evenodd" d="M8.34201 13.7275C8.27351 13.6659 8.23926 13.5871 8.23926 13.4912C8.23926 13.3953 8.28721 13.2857 8.38311 13.1624L13.9318 6.19572C14.0414 6.05872 14.1613 5.99364 14.2914 6.00049C14.4216 6.00049 14.5209 6.05529 14.5894 6.16489C14.6579 6.26765 14.6613 6.40123 14.5997 6.56563L12.7398 11.5594H16.1718C16.2814 11.5594 16.367 11.5902 16.4287 11.6519C16.4972 11.7067 16.5314 11.7855 16.5314 11.8882C16.5314 11.9841 16.4835 12.0903 16.3876 12.2068L10.8389 19.1837C10.7293 19.3138 10.6094 19.3789 10.4793 19.3789C10.3491 19.3789 10.2498 19.3275 10.1813 19.2248C10.1128 19.1152 10.1094 18.9748 10.171 18.8035L12.0308 13.8097H8.58862C8.49271 13.8097 8.41051 13.7823 8.34201 13.7275Z" fill="white"/>
</svg>
