<svg width="33" height="28" viewBox="0 0 33 28" fill="none" xmlns="http://www.w3.org/2000/svg">
<path d="M0.289898 13.7514C0.0166609 14.1471 -0.0634261 14.4957 0.0496378 14.7972C0.172124 15.0987 0.48776 15.2495 0.996547 15.2495H2.84797C3.03641 16.9454 3.52164 18.533 4.30367 20.0123C5.08569 21.4916 6.09384 22.7871 7.32812 23.8989C8.5624 25.0107 9.96157 25.8822 11.5256 26.5135C13.0897 27.1447 14.7479 27.4604 16.5004 27.4604C18.5073 27.4604 20.387 27.0458 22.1395 26.2167C23.892 25.3875 25.3901 24.2757 26.6338 22.8813C26.9164 22.5798 27.0483 22.2547 27.0295 21.9061C27.0201 21.5575 26.8835 21.2748 26.6196 21.0581C26.3464 20.832 26.0449 20.7378 25.7151 20.7755C25.3948 20.8037 25.098 20.9592 24.8248 21.2419C23.8072 22.3819 22.5776 23.2864 21.136 23.9554C19.7039 24.6244 18.1587 24.9588 16.5004 24.9588C15.0683 24.9588 13.7209 24.7092 12.4584 24.2098C11.1958 23.7199 10.0652 23.032 9.06648 22.1464C8.07717 21.2607 7.26217 20.2337 6.62147 19.0654C5.9902 17.8971 5.58506 16.6251 5.40604 15.2495H7.39879C7.89815 15.2495 8.20908 15.0987 8.33156 14.7972C8.45405 14.4957 8.37867 14.1518 8.10544 13.7655L4.99618 9.3843C4.77005 9.05453 4.50153 8.88964 4.1906 8.88964C3.8891 8.88964 3.62057 9.05453 3.38502 9.3843L0.289898 13.7514ZM6.39535 4.56495C6.10326 4.86646 5.96193 5.19151 5.97136 5.54013C5.9902 5.88874 6.13153 6.1714 6.39535 6.38811C6.65916 6.60481 6.95595 6.69903 7.28572 6.67077C7.61549 6.6425 7.917 6.48704 8.19023 6.20438C9.20781 5.07374 10.4327 4.17865 11.8648 3.51911C13.297 2.85015 14.8422 2.51567 16.5004 2.51567C17.9326 2.51567 19.2799 2.76064 20.5425 3.25059C21.805 3.74053 22.9309 4.42833 23.9202 5.314C24.919 6.19025 25.734 7.21724 26.3652 8.39499C27.0059 9.57274 27.4158 10.8447 27.5948 12.2109H25.6021C25.1121 12.2109 24.8012 12.3616 24.6693 12.6631C24.5374 12.9647 24.6128 13.3086 24.8954 13.6949L27.9905 18.0761C28.2167 18.3964 28.4852 18.5613 28.7961 18.5707C29.107 18.5707 29.3756 18.4059 29.6017 18.0761L32.711 13.709C32.9936 13.3133 33.069 12.9647 32.9371 12.6631C32.8146 12.3616 32.5037 12.2109 32.0043 12.2109H30.1388C29.9503 10.5149 29.4651 8.92733 28.6831 7.44808C27.9105 5.96883 26.907 4.67331 25.6727 3.56151C24.4384 2.44972 23.0393 1.57818 21.4752 0.94691C19.9112 0.315637 18.2529 0 16.5004 0C14.503 0 12.628 0.414567 10.8755 1.2437C9.13243 2.06341 7.63905 3.1705 6.39535 4.56495Z" fill="white"/>
</svg>
