<svg width="80" height="80" viewBox="0 0 80 80" fill="none" xmlns="http://www.w3.org/2000/svg">
<g clip-path="url(#clip0_470_2421)">
<rect width="80" height="80" rx="16" fill="#E4E4E4"/>
<path d="M66.8499 36.8696V53.8496H65.2899V52.3797H54.2199V53.8496H52.6599V36.8696H66.8499ZM54.2199 50.8496H58.9899V45.2696H54.2199V50.8496ZM60.5499 50.8496H65.2899V45.2696H60.5499V50.8496ZM54.2199 43.7996H58.9899V38.3996H54.2199V43.7996ZM60.5499 38.3996V43.7996H65.2899V38.3996H60.5499ZM55.3299 26.6396H56.8899V30.2096H62.5599V26.6396H64.0899V30.2096H68.2899V31.7396H64.0899V35.0696H62.5599V31.7396H56.8899V35.0996H55.3299V31.7396H51.5199V30.2096H55.3299V26.6396ZM49.7499 29.1596V50.9096H48.1899V48.9896H44.2299V51.5996H42.6699V29.1596H49.7499ZM44.2299 47.4596H48.1899V30.6896H44.2299V47.4596Z" fill="#C0C0C0"/>
<path d="M43.85 71.87V88.85H42.29V87.38H31.22V88.85H29.66V71.87H43.85ZM31.22 85.85H35.99V80.27H31.22V85.85ZM37.55 85.85H42.29V80.27H37.55V85.85ZM31.22 78.8H35.99V73.4H31.22V78.8ZM37.55 73.4V78.8H42.29V73.4H37.55ZM32.33 61.64H33.89V65.21H39.56V61.64H41.09V65.21H45.29V66.74H41.09V70.07H39.56V66.74H33.89V70.1H32.33V66.74H28.52V65.21H32.33V61.64ZM26.75 64.16V85.91H25.19V83.99H21.23V86.6H19.67V64.16H26.75ZM21.23 82.46H25.19V65.69H21.23V82.46Z" fill="#C0C0C0"/>
<path d="M20.11 37.522V47.71H19.174V46.828H12.532V47.71H11.596V37.522H20.11ZM12.532 45.91H15.394V42.562H12.532V45.91ZM16.33 45.91H19.174V42.562H16.33V45.91ZM12.532 41.68H15.394V38.44H12.532V41.68ZM16.33 38.44V41.68H19.174V38.44H16.33ZM13.198 31.384H14.134V33.526H17.536V31.384H18.454V33.526H20.974V34.444H18.454V36.442H17.536V34.444H14.134V36.46H13.198V34.444H10.912V33.526H13.198V31.384ZM9.85 32.896V45.946H8.914V44.794H6.538V46.36H5.602V32.896H9.85ZM6.538 43.876H8.914V33.814H6.538V43.876Z" fill="#C0C0C0"/>
<path d="M39.11 1.522V11.71H38.174V10.828H31.532V11.71H30.596V1.522H39.11ZM31.532 9.91H34.394V6.562H31.532V9.91ZM35.33 9.91H38.174V6.562H35.33V9.91ZM31.532 5.68H34.394V2.44H31.532V5.68ZM35.33 2.44V5.68H38.174V2.44H35.33ZM32.198 -4.616H33.134V-2.474H36.536V-4.616H37.454V-2.474H39.974V-1.556H37.454V0.442H36.536V-1.556H33.134V0.459999H32.198V-1.556H29.912V-2.474H32.198V-4.616ZM28.85 -3.104V9.946H27.914V8.794H25.538V10.36H24.602V-3.104H28.85ZM25.538 7.876H27.914V-2.186H25.538V7.876Z" fill="#C0C0C0"/>
</g>
<defs>
<clipPath id="clip0_470_2421">
<rect width="80" height="80" rx="16" fill="white"/>
</clipPath>
</defs>
</svg>
