<svg width="80" height="80" viewBox="0 0 80 80" fill="none" xmlns="http://www.w3.org/2000/svg">
<g clip-path="url(#clip0_470_2411)">
<rect width="80" height="80" rx="16" fill="#E4E4E4"/>
<path d="M59.0001 20.667L69.0057 38.0099C73.4485 45.7108 67.8907 55.3337 59.0001 55.3337C50.1096 55.3337 44.5518 45.7108 48.9946 38.0099L59.0001 20.667Z" fill="#C0C0C0"/>
<path d="M11.4999 32L16.2526 40.2379C18.3629 43.8958 15.7229 48.4667 11.4999 48.4667C7.27692 48.4667 4.63695 43.8958 6.74728 40.2379L11.4999 32Z" fill="#C0C0C0"/>
<path d="M37.4999 -6L42.2526 2.23791C44.3629 5.89581 41.7229 10.4667 37.4999 10.4667C33.2769 10.4667 30.637 5.89581 32.7473 2.23791L37.4999 -6Z" fill="#C0C0C0"/>
<path d="M31.0001 55L41.0057 72.343C45.4485 80.0438 39.8907 89.6667 31.0001 89.6667C22.1096 89.6667 16.5518 80.0438 20.9946 72.343L31.0001 55Z" fill="#C0C0C0"/>
</g>
<defs>
<clipPath id="clip0_470_2411">
<rect width="80" height="80" rx="16" fill="white"/>
</clipPath>
</defs>
</svg>
