<svg width="80" height="80" viewBox="0 0 80 80" fill="none" xmlns="http://www.w3.org/2000/svg">
<g clip-path="url(#clip0_470_2416)">
<rect width="80" height="80" rx="16" fill="#E4E4E4"/>
<path d="M59 25L63.7023 34.5279L74.2169 36.0557L66.6085 43.4721L68.4046 53.9443L59 49L49.5954 53.9443L51.3915 43.4721L43.7831 36.0557L54.2977 34.5279L59 25Z" fill="#C0C0C0"/>
<path d="M34 57L38.7023 66.5279L49.2169 68.0557L41.6085 75.4721L43.4046 85.9443L34 81L24.5954 85.9443L26.3915 75.4721L18.7831 68.0557L29.2977 66.5279L34 57Z" fill="#C0C0C0"/>
<path d="M14 30L16.9389 35.9549L23.5106 36.9098L18.7553 41.5451L19.8779 48.0902L14 45L8.12215 48.0902L9.24472 41.5451L4.48944 36.9098L11.0611 35.9549L14 30Z" fill="#C0C0C0"/>
<path d="M40 -7L42.9389 -1.04508L49.5106 -0.0901699L44.7553 4.54508L45.8779 11.0902L40 8L34.1221 11.0902L35.2447 4.54508L30.4894 -0.0901699L37.0611 -1.04508L40 -7Z" fill="#C0C0C0"/>
</g>
<defs>
<clipPath id="clip0_470_2416">
<rect width="80" height="80" rx="16" fill="white"/>
</clipPath>
</defs>
</svg>
